<?xml version="1.0" encoding="UTF-8" standalone="no"?>
<!DOCTYPE svg PUBLIC "-//W3C//DTD SVG 1.1//EN"
 "http://www.w3.org/Graphics/SVG/1.1/DTD/svg11.dtd">
<!-- Generated by graphviz version 2.36.0 (20140111.2315)
 -->
<!-- Title: G Pages: 1 -->
<svg width="2093pt" height="782pt"
 viewBox="0.00 0.00 2093.20 782.20" xmlns="http://www.w3.org/2000/svg" xmlns:xlink="http://www.w3.org/1999/xlink">
<g id="graph0" class="graph" transform="scale(1 1) rotate(0) translate(21.6 760.6)">
<title>G</title>
<polygon fill="#111111" stroke="none" points="-21.6,21.6 -21.6,-760.6 2071.6,-760.6 2071.6,21.6 -21.6,21.6"/>
<!-- ../hmrPayload.ts -->
<g id="node1" class="node"><title>../hmrPayload.ts</title>
<path fill="none" stroke="#cfffac" d="M354.333,-739.5C354.333,-739.5 251.667,-739.5 251.667,-739.5 247.833,-739.5 244,-735.667 244,-731.833 244,-731.833 244,-724.167 244,-724.167 244,-720.333 247.833,-716.5 251.667,-716.5 251.667,-716.5 354.333,-716.5 354.333,-716.5 358.167,-716.5 362,-720.333 362,-724.167 362,-724.167 362,-731.833 362,-731.833 362,-735.667 358.167,-739.5 354.333,-739.5"/>
<text text-anchor="middle" x="303" y="-724.3" font-family="Arial" font-size="14.00" fill="#cfffac">../hmrPayload.ts</text>
</g>
<!-- build/buildPluginEsbuild.ts -->
<g id="node2" class="node"><title>build/buildPluginEsbuild.ts</title>
<path fill="none" stroke="#ff6c60" d="M1521.83,-604.5C1521.83,-604.5 1358.17,-604.5 1358.17,-604.5 1354.33,-604.5 1350.5,-600.667 1350.5,-596.833 1350.5,-596.833 1350.5,-589.167 1350.5,-589.167 1350.5,-585.333 1354.33,-581.5 1358.17,-581.5 1358.17,-581.5 1521.83,-581.5 1521.83,-581.5 1525.67,-581.5 1529.5,-585.333 1529.5,-589.167 1529.5,-589.167 1529.5,-596.833 1529.5,-596.833 1529.5,-600.667 1525.67,-604.5 1521.83,-604.5"/>
<text text-anchor="middle" x="1440" y="-589.3" font-family="Arial" font-size="14.00" fill="#ff6c60">build/buildPluginEsbuild.ts</text>
</g>
<!-- config.ts -->
<g id="node3" class="node"><title>config.ts</title>
<path fill="none" stroke="#ff6c60" d="M1286.83,-603.5C1286.83,-603.5 1233.17,-603.5 1233.17,-603.5 1229.33,-603.5 1225.5,-599.667 1225.5,-595.833 1225.5,-595.833 1225.5,-588.167 1225.5,-588.167 1225.5,-584.333 1229.33,-580.5 1233.17,-580.5 1233.17,-580.5 1286.83,-580.5 1286.83,-580.5 1290.67,-580.5 1294.5,-584.333 1294.5,-588.167 1294.5,-588.167 1294.5,-595.833 1294.5,-595.833 1294.5,-599.667 1290.67,-603.5 1286.83,-603.5"/>
<text text-anchor="middle" x="1260" y="-588.3" font-family="Arial" font-size="14.00" fill="#ff6c60">config.ts</text>
</g>
<!-- build/buildPluginEsbuild.ts&#45;&gt;config.ts -->
<g id="edge1" class="edge"><title>build/buildPluginEsbuild.ts&#45;&gt;config.ts</title>
<path fill="none" stroke="#757575" d="M1350.45,-599.252C1334.68,-599.169 1318.89,-598.803 1305.06,-598.166"/>
<polygon fill="#757575" stroke="#757575" points="1305.07,-594.661 1294.9,-597.625 1304.7,-601.652 1305.07,-594.661"/>
</g>
<!-- esbuildService.ts -->
<g id="node4" class="node"><title>esbuildService.ts</title>
<path fill="none" stroke="#ff6c60" d="M1731.33,-564.5C1731.33,-564.5 1624.67,-564.5 1624.67,-564.5 1620.83,-564.5 1617,-560.667 1617,-556.833 1617,-556.833 1617,-549.167 1617,-549.167 1617,-545.333 1620.83,-541.5 1624.67,-541.5 1624.67,-541.5 1731.33,-541.5 1731.33,-541.5 1735.17,-541.5 1739,-545.333 1739,-549.167 1739,-549.167 1739,-556.833 1739,-556.833 1739,-560.667 1735.17,-564.5 1731.33,-564.5"/>
<text text-anchor="middle" x="1678" y="-549.3" font-family="Arial" font-size="14.00" fill="#ff6c60">esbuildService.ts</text>
</g>
<!-- build/buildPluginEsbuild.ts&#45;&gt;esbuildService.ts -->
<g id="edge2" class="edge"><title>build/buildPluginEsbuild.ts&#45;&gt;esbuildService.ts</title>
<path fill="none" stroke="#757575" d="M1507.68,-581.698C1538.68,-576.445 1575.54,-570.197 1606.94,-564.875"/>
<polygon fill="#757575" stroke="#757575" points="1607.66,-568.303 1616.93,-563.181 1606.49,-561.402 1607.66,-568.303"/>
</g>
<!-- config.ts&#45;&gt;build/buildPluginEsbuild.ts -->
<g id="edge3" class="edge"><title>config.ts&#45;&gt;build/buildPluginEsbuild.ts</title>
<path fill="none" stroke="#757575" d="M1294.9,-586.756C1308.1,-586.098 1323.96,-585.761 1340.27,-585.731"/>
<polygon fill="#757575" stroke="#757575" points="1340.45,-589.232 1350.45,-585.753 1340.46,-582.232 1340.45,-589.232"/>
</g>
<!-- resolver.ts -->
<g id="node5" class="node"><title>resolver.ts</title>
<path fill="none" stroke="#ff6c60" d="M830.833,-455.5C830.833,-455.5 765.167,-455.5 765.167,-455.5 761.333,-455.5 757.5,-451.667 757.5,-447.833 757.5,-447.833 757.5,-440.167 757.5,-440.167 757.5,-436.333 761.333,-432.5 765.167,-432.5 765.167,-432.5 830.833,-432.5 830.833,-432.5 834.667,-432.5 838.5,-436.333 838.5,-440.167 838.5,-440.167 838.5,-447.833 838.5,-447.833 838.5,-451.667 834.667,-455.5 830.833,-455.5"/>
<text text-anchor="middle" x="798" y="-440.3" font-family="Arial" font-size="14.00" fill="#ff6c60">resolver.ts</text>
</g>
<!-- config.ts&#45;&gt;resolver.ts -->
<g id="edge4" class="edge"><title>config.ts&#45;&gt;resolver.ts</title>
<path fill="none" stroke="#757575" d="M1225.12,-583.602C1163.93,-568.135 1031.18,-533.212 922,-495 891.565,-484.348 857.781,-470.164 833.332,-459.458"/>
<polygon fill="#757575" stroke="#757575" points="834.681,-456.228 824.119,-455.395 831.856,-462.632 834.681,-456.228"/>
</g>
<!-- transform.ts -->
<g id="node6" class="node"><title>transform.ts</title>
<path fill="none" stroke="#c6c5fe" d="M1477.33,-446.5C1477.33,-446.5 1402.67,-446.5 1402.67,-446.5 1398.83,-446.5 1395,-442.667 1395,-438.833 1395,-438.833 1395,-431.167 1395,-431.167 1395,-427.333 1398.83,-423.5 1402.67,-423.5 1402.67,-423.5 1477.33,-423.5 1477.33,-423.5 1481.17,-423.5 1485,-427.333 1485,-431.167 1485,-431.167 1485,-438.833 1485,-438.833 1485,-442.667 1481.17,-446.5 1477.33,-446.5"/>
<text text-anchor="middle" x="1440" y="-431.3" font-family="Arial" font-size="14.00" fill="#c6c5fe">transform.ts</text>
</g>
<!-- config.ts&#45;&gt;transform.ts -->
<g id="edge5" class="edge"><title>config.ts&#45;&gt;transform.ts</title>
<path fill="none" stroke="#757575" d="M1273.8,-580.709C1304.19,-553.909 1380.89,-486.254 1418.11,-453.43"/>
<polygon fill="#757575" stroke="#757575" points="1420.65,-455.852 1425.83,-446.612 1416.02,-450.602 1420.65,-455.852"/>
</g>
<!-- esbuildService.ts&#45;&gt;config.ts -->
<g id="edge6" class="edge"><title>esbuildService.ts&#45;&gt;config.ts</title>
<path fill="none" stroke="#757575" d="M1616.77,-553.995C1550.96,-555.707 1442.56,-560.361 1350,-573 1335.14,-575.03 1319.05,-578.168 1304.7,-581.312"/>
<polygon fill="#757575" stroke="#757575" points="1303.59,-577.976 1294.6,-583.588 1305.13,-584.805 1303.59,-577.976"/>
</g>
<!-- optimizer/pluginAssets.ts -->
<g id="node8" class="node"><title>optimizer/pluginAssets.ts</title>
<path fill="none" stroke="#ff6c60" d="M1123.83,-368.5C1123.83,-368.5 968.167,-368.5 968.167,-368.5 964.333,-368.5 960.5,-364.667 960.5,-360.833 960.5,-360.833 960.5,-353.167 960.5,-353.167 960.5,-349.333 964.333,-345.5 968.167,-345.5 968.167,-345.5 1123.83,-345.5 1123.83,-345.5 1127.67,-345.5 1131.5,-349.333 1131.5,-353.167 1131.5,-353.167 1131.5,-360.833 1131.5,-360.833 1131.5,-364.667 1127.67,-368.5 1123.83,-368.5"/>
<text text-anchor="middle" x="1046" y="-353.3" font-family="Arial" font-size="14.00" fill="#ff6c60">optimizer/pluginAssets.ts</text>
</g>
<!-- resolver.ts&#45;&gt;optimizer/pluginAssets.ts -->
<g id="edge10" class="edge"><title>resolver.ts&#45;&gt;optimizer/pluginAssets.ts</title>
<path fill="none" stroke="#757575" d="M809.463,-432.586C830.206,-416.381 878.319,-389.175 922,-374 931.123,-370.831 940.767,-367.98 950.48,-365.479"/>
<polygon fill="#757575" stroke="#757575" points="951.32,-368.877 960.199,-363.096 949.653,-362.079 951.32,-368.877"/>
</g>
<!-- server/serverPluginClient.ts -->
<g id="node10" class="node"><title>server/serverPluginClient.ts</title>
<path fill="none" stroke="#ff6c60" d="M1132.33,-683.5C1132.33,-683.5 959.667,-683.5 959.667,-683.5 955.833,-683.5 952,-679.667 952,-675.833 952,-675.833 952,-668.167 952,-668.167 952,-664.333 955.833,-660.5 959.667,-660.5 959.667,-660.5 1132.33,-660.5 1132.33,-660.5 1136.17,-660.5 1140,-664.333 1140,-668.167 1140,-668.167 1140,-675.833 1140,-675.833 1140,-679.667 1136.17,-683.5 1132.33,-683.5"/>
<text text-anchor="middle" x="1046" y="-668.3" font-family="Arial" font-size="14.00" fill="#ff6c60">server/serverPluginClient.ts</text>
</g>
<!-- resolver.ts&#45;&gt;server/serverPluginClient.ts -->
<g id="edge11" class="edge"><title>resolver.ts&#45;&gt;server/serverPluginClient.ts</title>
<path fill="none" stroke="#757575" d="M809.644,-455.272C827.433,-474.593 863.47,-515.847 886,-556 908.094,-595.377 887.143,-622.3 922,-651 928.115,-656.035 934.992,-660.06 942.288,-663.26"/>
<polygon fill="#757575" stroke="#757575" points="941.14,-666.568 951.73,-666.888 943.651,-660.034 941.14,-666.568"/>
</g>
<!-- server/serverPluginModuleResolve.ts -->
<g id="node11" class="node"><title>server/serverPluginModuleResolve.ts</title>
<path fill="none" stroke="#ff6c60" d="M1162.33,-486.5C1162.33,-486.5 929.667,-486.5 929.667,-486.5 925.833,-486.5 922,-482.667 922,-478.833 922,-478.833 922,-471.167 922,-471.167 922,-467.333 925.833,-463.5 929.667,-463.5 929.667,-463.5 1162.33,-463.5 1162.33,-463.5 1166.17,-463.5 1170,-467.333 1170,-471.167 1170,-471.167 1170,-478.833 1170,-478.833 1170,-482.667 1166.17,-486.5 1162.33,-486.5"/>
<text text-anchor="middle" x="1046" y="-471.3" font-family="Arial" font-size="14.00" fill="#ff6c60">server/serverPluginModuleResolve.ts</text>
</g>
<!-- resolver.ts&#45;&gt;server/serverPluginModuleResolve.ts -->
<g id="edge12" class="edge"><title>resolver.ts&#45;&gt;server/serverPluginModuleResolve.ts</title>
<path fill="none" stroke="#757575" d="M838.524,-443.866C879.056,-447.047 942.486,-454.816 988.351,-462.073"/>
<polygon fill="#757575" stroke="#757575" points="988.007,-465.563 998.438,-463.709 989.127,-458.654 988.007,-465.563"/>
</g>
<!-- transform.ts&#45;&gt;resolver.ts -->
<g id="edge41" class="edge"><title>transform.ts&#45;&gt;resolver.ts</title>
<path fill="none" stroke="#757575" d="M1394.69,-435.623C1279.26,-437.246 969.852,-441.597 848.659,-443.302"/>
<polygon fill="#757575" stroke="#757575" points="848.502,-439.803 838.552,-443.444 848.6,-446.803 848.502,-439.803"/>
</g>
<!-- server/serverPluginSourceMap.ts -->
<g id="node19" class="node"><title>server/serverPluginSourceMap.ts</title>
<path fill="none" stroke="#cfffac" d="M1781.83,-415.5C1781.83,-415.5 1574.17,-415.5 1574.17,-415.5 1570.33,-415.5 1566.5,-411.667 1566.5,-407.833 1566.5,-407.833 1566.5,-400.167 1566.5,-400.167 1566.5,-396.333 1570.33,-392.5 1574.17,-392.5 1574.17,-392.5 1781.83,-392.5 1781.83,-392.5 1785.67,-392.5 1789.5,-396.333 1789.5,-400.167 1789.5,-400.167 1789.5,-407.833 1789.5,-407.833 1789.5,-411.667 1785.67,-415.5 1781.83,-415.5"/>
<text text-anchor="middle" x="1678" y="-400.3" font-family="Arial" font-size="14.00" fill="#cfffac">server/serverPluginSourceMap.ts</text>
</g>
<!-- transform.ts&#45;&gt;server/serverPluginSourceMap.ts -->
<g id="edge42" class="edge"><title>transform.ts&#45;&gt;server/serverPluginSourceMap.ts</title>
<path fill="none" stroke="#757575" d="M1485.11,-429.206C1512.07,-425.664 1547.65,-420.991 1580.83,-416.632"/>
<polygon fill="#757575" stroke="#757575" points="1581.59,-420.063 1591.04,-415.291 1580.67,-413.123 1581.59,-420.063"/>
</g>
<!-- index.ts -->
<g id="node7" class="node"><title>index.ts</title>
<path fill="none" stroke="#c6c5fe" d="M1070.83,-642.5C1070.83,-642.5 1021.17,-642.5 1021.17,-642.5 1017.33,-642.5 1013.5,-638.667 1013.5,-634.833 1013.5,-634.833 1013.5,-627.167 1013.5,-627.167 1013.5,-623.333 1017.33,-619.5 1021.17,-619.5 1021.17,-619.5 1070.83,-619.5 1070.83,-619.5 1074.67,-619.5 1078.5,-623.333 1078.5,-627.167 1078.5,-627.167 1078.5,-634.833 1078.5,-634.833 1078.5,-638.667 1074.67,-642.5 1070.83,-642.5"/>
<text text-anchor="middle" x="1046" y="-627.3" font-family="Arial" font-size="14.00" fill="#c6c5fe">index.ts</text>
</g>
<!-- index.ts&#45;&gt;config.ts -->
<g id="edge7" class="edge"><title>index.ts&#45;&gt;config.ts</title>
<path fill="none" stroke="#757575" d="M1078.74,-625.161C1115.05,-618.481 1174.73,-607.503 1215.39,-600.023"/>
<polygon fill="#757575" stroke="#757575" points="1216.09,-603.453 1225.29,-598.201 1214.82,-596.568 1216.09,-603.453"/>
</g>
<!-- optimizer/pluginAssets.ts&#45;&gt;resolver.ts -->
<g id="edge8" class="edge"><title>optimizer/pluginAssets.ts&#45;&gt;resolver.ts</title>
<path fill="none" stroke="#757575" d="M1015.36,-368.287C990.085,-374.129 953.029,-381.221 922,-392 893.8,-401.797 863.753,-416.608 840.415,-428.128"/>
<polygon fill="#757575" stroke="#757575" points="838.598,-425.122 831.174,-432.681 841.691,-431.402 838.598,-425.122"/>
</g>
<!-- utils/cssUtils.ts -->
<g id="node9" class="node"><title>utils/cssUtils.ts</title>
<path fill="none" stroke="#ff6c60" d="M1306.33,-247.5C1306.33,-247.5 1213.67,-247.5 1213.67,-247.5 1209.83,-247.5 1206,-243.667 1206,-239.833 1206,-239.833 1206,-232.167 1206,-232.167 1206,-228.333 1209.83,-224.5 1213.67,-224.5 1213.67,-224.5 1306.33,-224.5 1306.33,-224.5 1310.17,-224.5 1314,-228.333 1314,-232.167 1314,-232.167 1314,-239.833 1314,-239.833 1314,-243.667 1310.17,-247.5 1306.33,-247.5"/>
<text text-anchor="middle" x="1260" y="-232.3" font-family="Arial" font-size="14.00" fill="#ff6c60">utils/cssUtils.ts</text>
</g>
<!-- optimizer/pluginAssets.ts&#45;&gt;utils/cssUtils.ts -->
<g id="edge9" class="edge"><title>optimizer/pluginAssets.ts&#45;&gt;utils/cssUtils.ts</title>
<path fill="none" stroke="#757575" d="M1070.46,-345.58C1095.46,-333.228 1136.04,-312.656 1170,-293 1191.91,-280.32 1216.05,-264.753 1233.65,-253.094"/>
<polygon fill="#757575" stroke="#757575" points="1235.84,-255.845 1242.22,-247.389 1231.96,-250.02 1235.84,-255.845"/>
</g>
<!-- utils/resolveVue.ts -->
<g id="node20" class="node"><title>utils/resolveVue.ts</title>
<path fill="none" stroke="#ff6c60" d="M1497.33,-195.5C1497.33,-195.5 1382.67,-195.5 1382.67,-195.5 1378.83,-195.5 1375,-191.667 1375,-187.833 1375,-187.833 1375,-180.167 1375,-180.167 1375,-176.333 1378.83,-172.5 1382.67,-172.5 1382.67,-172.5 1497.33,-172.5 1497.33,-172.5 1501.17,-172.5 1505,-176.333 1505,-180.167 1505,-180.167 1505,-187.833 1505,-187.833 1505,-191.667 1501.17,-195.5 1497.33,-195.5"/>
<text text-anchor="middle" x="1440" y="-180.3" font-family="Arial" font-size="14.00" fill="#ff6c60">utils/resolveVue.ts</text>
</g>
<!-- utils/cssUtils.ts&#45;&gt;utils/resolveVue.ts -->
<g id="edge44" class="edge"><title>utils/cssUtils.ts&#45;&gt;utils/resolveVue.ts</title>
<path fill="none" stroke="#757575" d="M1299.62,-224.717C1326.33,-216.915 1362.06,-206.476 1390.66,-198.122"/>
<polygon fill="#757575" stroke="#757575" points="1391.83,-201.425 1400.45,-195.261 1389.87,-194.706 1391.83,-201.425"/>
</g>
<!-- utils/pathUtils.ts -->
<g id="node21" class="node"><title>utils/pathUtils.ts</title>
<path fill="none" stroke="#ff6c60" d="M1727.83,-243.5C1727.83,-243.5 1628.17,-243.5 1628.17,-243.5 1624.33,-243.5 1620.5,-239.667 1620.5,-235.833 1620.5,-235.833 1620.5,-228.167 1620.5,-228.167 1620.5,-224.333 1624.33,-220.5 1628.17,-220.5 1628.17,-220.5 1727.83,-220.5 1727.83,-220.5 1731.67,-220.5 1735.5,-224.333 1735.5,-228.167 1735.5,-228.167 1735.5,-235.833 1735.5,-235.833 1735.5,-239.667 1731.67,-243.5 1727.83,-243.5"/>
<text text-anchor="middle" x="1678" y="-228.3" font-family="Arial" font-size="14.00" fill="#ff6c60">utils/pathUtils.ts</text>
</g>
<!-- utils/cssUtils.ts&#45;&gt;utils/pathUtils.ts -->
<g id="edge43" class="edge"><title>utils/cssUtils.ts&#45;&gt;utils/pathUtils.ts</title>
<path fill="none" stroke="#757575" d="M1314.11,-235.489C1389.6,-234.763 1527.87,-233.434 1610.21,-232.642"/>
<polygon fill="#757575" stroke="#757575" points="1610.25,-236.142 1620.22,-232.546 1610.18,-229.142 1610.25,-236.142"/>
</g>
<!-- utils/transformUtils.ts -->
<g id="node22" class="node"><title>utils/transformUtils.ts</title>
<path fill="none" stroke="#cfffac" d="M1505.33,-283.5C1505.33,-283.5 1374.67,-283.5 1374.67,-283.5 1370.83,-283.5 1367,-279.667 1367,-275.833 1367,-275.833 1367,-268.167 1367,-268.167 1367,-264.333 1370.83,-260.5 1374.67,-260.5 1374.67,-260.5 1505.33,-260.5 1505.33,-260.5 1509.17,-260.5 1513,-264.333 1513,-268.167 1513,-268.167 1513,-275.833 1513,-275.833 1513,-279.667 1509.17,-283.5 1505.33,-283.5"/>
<text text-anchor="middle" x="1440" y="-268.3" font-family="Arial" font-size="14.00" fill="#cfffac">utils/transformUtils.ts</text>
</g>
<!-- utils/cssUtils.ts&#45;&gt;utils/transformUtils.ts -->
<g id="edge45" class="edge"><title>utils/cssUtils.ts&#45;&gt;utils/transformUtils.ts</title>
<path fill="none" stroke="#757575" d="M1314.41,-246.801C1332.89,-250.54 1353.83,-254.775 1373.2,-258.692"/>
<polygon fill="#757575" stroke="#757575" points="1372.67,-262.155 1383.16,-260.707 1374.05,-255.294 1372.67,-262.155"/>
</g>
<!-- server/serverPluginClient.ts&#45;&gt;config.ts -->
<g id="edge13" class="edge"><title>server/serverPluginClient.ts&#45;&gt;config.ts</title>
<path fill="none" stroke="#757575" d="M1138.85,-660.683C1149.53,-658.093 1160.13,-654.91 1170,-651 1195.1,-641.056 1220.44,-623.335 1237.63,-609.902"/>
<polygon fill="#757575" stroke="#757575" points="1240.21,-612.316 1245.83,-603.332 1235.83,-606.853 1240.21,-612.316"/>
</g>
<!-- server/serverPluginModuleResolve.ts&#45;&gt;resolver.ts -->
<g id="edge25" class="edge"><title>server/serverPluginModuleResolve.ts&#45;&gt;resolver.ts</title>
<path fill="none" stroke="#757575" d="M921.796,-466.224C895.842,-462.951 869.899,-459.28 848.592,-455.791"/>
<polygon fill="#757575" stroke="#757575" points="848.967,-452.305 838.524,-454.096 847.804,-459.208 848.967,-452.305"/>
</g>
<!-- server/serverPluginCss.ts -->
<g id="node12" class="node"><title>server/serverPluginCss.ts</title>
<path fill="none" stroke="#ff6c60" d="M631.333,-389.5C631.333,-389.5 470.667,-389.5 470.667,-389.5 466.833,-389.5 463,-385.667 463,-381.833 463,-381.833 463,-374.167 463,-374.167 463,-370.333 466.833,-366.5 470.667,-366.5 470.667,-366.5 631.333,-366.5 631.333,-366.5 635.167,-366.5 639,-370.333 639,-374.167 639,-374.167 639,-381.833 639,-381.833 639,-385.667 635.167,-389.5 631.333,-389.5"/>
<text text-anchor="middle" x="551" y="-374.3" font-family="Arial" font-size="14.00" fill="#ff6c60">server/serverPluginCss.ts</text>
</g>
<!-- server/serverPluginCss.ts&#45;&gt;resolver.ts -->
<g id="edge14" class="edge"><title>server/serverPluginCss.ts&#45;&gt;resolver.ts</title>
<path fill="none" stroke="#757575" d="M610.938,-389.265C631.051,-393.452 653.607,-398.527 674,-404 701.516,-411.385 731.97,-421.274 755.691,-429.373"/>
<polygon fill="#757575" stroke="#757575" points="754.822,-432.775 765.416,-432.721 757.1,-426.156 754.822,-432.775"/>
</g>
<!-- server/serverPluginCss.ts&#45;&gt;utils/cssUtils.ts -->
<g id="edge17" class="edge"><title>server/serverPluginCss.ts&#45;&gt;utils/cssUtils.ts</title>
<path fill="none" stroke="#757575" d="M562.951,-366.625C586.927,-342.596 646.978,-287.067 710,-265 877.385,-206.39 1091.01,-217.584 1195.57,-228.127"/>
<polygon fill="#757575" stroke="#757575" points="1195.34,-231.622 1205.65,-229.176 1196.06,-224.66 1195.34,-231.622"/>
</g>
<!-- server/serverPluginCss.ts&#45;&gt;server/serverPluginClient.ts -->
<g id="edge15" class="edge"><title>server/serverPluginCss.ts&#45;&gt;server/serverPluginClient.ts</title>
<path fill="none" stroke="#757575" d="M572.798,-389.486C637.689,-425.583 835.124,-537.447 886,-590 907.896,-612.618 896.078,-633.137 922,-651 928.193,-655.268 934.969,-658.764 942.055,-661.62"/>
<polygon fill="#757575" stroke="#757575" points="941.29,-665.063 951.885,-665.129 943.644,-658.471 941.29,-665.063"/>
</g>
<!-- server/serverPluginVue.ts -->
<g id="node13" class="node"><title>server/serverPluginVue.ts</title>
<path fill="none" stroke="#ff6c60" d="M383.833,-408.5C383.833,-408.5 222.167,-408.5 222.167,-408.5 218.333,-408.5 214.5,-404.667 214.5,-400.833 214.5,-400.833 214.5,-393.167 214.5,-393.167 214.5,-389.333 218.333,-385.5 222.167,-385.5 222.167,-385.5 383.833,-385.5 383.833,-385.5 387.667,-385.5 391.5,-389.333 391.5,-393.167 391.5,-393.167 391.5,-400.833 391.5,-400.833 391.5,-404.667 387.667,-408.5 383.833,-408.5"/>
<text text-anchor="middle" x="303" y="-393.3" font-family="Arial" font-size="14.00" fill="#ff6c60">server/serverPluginVue.ts</text>
</g>
<!-- server/serverPluginCss.ts&#45;&gt;server/serverPluginVue.ts -->
<g id="edge16" class="edge"><title>server/serverPluginCss.ts&#45;&gt;server/serverPluginVue.ts</title>
<path fill="none" stroke="#757575" d="M482.766,-389.284C457.876,-391.837 429.122,-394.236 402.051,-396.052"/>
<polygon fill="#757575" stroke="#757575" points="401.522,-392.579 391.77,-396.719 401.975,-399.564 401.522,-392.579"/>
</g>
<!-- server/serverPluginVue.ts&#45;&gt;config.ts -->
<g id="edge31" class="edge"><title>server/serverPluginVue.ts&#45;&gt;config.ts</title>
<path fill="none" stroke="#757575" d="M318.395,-408.369C336.137,-422.546 367.005,-447.754 392,-471 408.801,-486.625 407.339,-498.022 428,-508 499.312,-542.44 1054.04,-579.269 1215.22,-589.332"/>
<polygon fill="#757575" stroke="#757575" points="1215.06,-592.829 1225.26,-589.956 1215.49,-585.842 1215.06,-592.829"/>
</g>
<!-- server/serverPluginVue.ts&#45;&gt;esbuildService.ts -->
<g id="edge32" class="edge"><title>server/serverPluginVue.ts&#45;&gt;esbuildService.ts</title>
<path fill="none" stroke="#757575" d="M335.452,-408.326C360.278,-416.854 395.953,-428.199 428,-435 869.698,-528.736 1415.09,-548.039 1606.58,-551.991"/>
<polygon fill="#757575" stroke="#757575" points="1606.72,-555.494 1616.78,-552.193 1606.86,-548.495 1606.72,-555.494"/>
</g>
<!-- server/serverPluginVue.ts&#45;&gt;resolver.ts -->
<g id="edge33" class="edge"><title>server/serverPluginVue.ts&#45;&gt;resolver.ts</title>
<path fill="none" stroke="#757575" d="M391.57,-405.349C495.161,-415.224 664.033,-431.324 747.328,-439.265"/>
<polygon fill="#757575" stroke="#757575" points="747.006,-442.75 757.293,-440.215 747.67,-435.781 747.006,-442.75"/>
</g>
<!-- server/serverPluginVue.ts&#45;&gt;utils/cssUtils.ts -->
<g id="edge39" class="edge"><title>server/serverPluginVue.ts&#45;&gt;utils/cssUtils.ts</title>
<path fill="none" stroke="#757575" d="M315.63,-385.705C336.457,-366.082 382.233,-325.632 428,-303 544.566,-245.357 581.495,-244.919 710,-225 912.062,-193.679 966.654,-195.536 1170,-217 1181.42,-218.206 1193.54,-220.259 1205.03,-222.581"/>
<polygon fill="#757575" stroke="#757575" points="1204.42,-226.031 1214.93,-224.677 1205.87,-219.182 1204.42,-226.031"/>
</g>
<!-- server/serverPluginVue.ts&#45;&gt;server/serverPluginCss.ts -->
<g id="edge34" class="edge"><title>server/serverPluginVue.ts&#45;&gt;server/serverPluginCss.ts</title>
<path fill="none" stroke="#757575" d="M371.221,-385.717C396.434,-383.131 425.614,-380.703 452.993,-378.878"/>
<polygon fill="#757575" stroke="#757575" points="453.234,-382.37 462.988,-378.234 452.784,-375.385 453.234,-382.37"/>
</g>
<!-- server/serverPluginHmr.ts -->
<g id="node15" class="node"><title>server/serverPluginHmr.ts</title>
<path fill="none" stroke="#ff6c60" d="M170.333,-437.5C170.333,-437.5 7.66667,-437.5 7.66667,-437.5 3.83333,-437.5 0,-433.667 0,-429.833 0,-429.833 0,-422.167 0,-422.167 0,-418.333 3.83333,-414.5 7.66667,-414.5 7.66667,-414.5 170.333,-414.5 170.333,-414.5 174.167,-414.5 178,-418.333 178,-422.167 178,-422.167 178,-429.833 178,-429.833 178,-433.667 174.167,-437.5 170.333,-437.5"/>
<text text-anchor="middle" x="89" y="-422.3" font-family="Arial" font-size="14.00" fill="#ff6c60">server/serverPluginHmr.ts</text>
</g>
<!-- server/serverPluginVue.ts&#45;&gt;server/serverPluginHmr.ts -->
<g id="edge35" class="edge"><title>server/serverPluginVue.ts&#45;&gt;server/serverPluginHmr.ts</title>
<path fill="none" stroke="#757575" d="M259.915,-408.27C239.226,-412.021 213.353,-415.967 188.083,-419.316"/>
<polygon fill="#757575" stroke="#757575" points="187.531,-415.858 178.065,-420.617 188.433,-422.8 187.531,-415.858"/>
</g>
<!-- server/serverPluginModuleRewrite.ts -->
<g id="node16" class="node"><title>server/serverPluginModuleRewrite.ts</title>
<path fill="none" stroke="#ff6c60" d="M665.833,-583.5C665.833,-583.5 436.167,-583.5 436.167,-583.5 432.333,-583.5 428.5,-579.667 428.5,-575.833 428.5,-575.833 428.5,-568.167 428.5,-568.167 428.5,-564.333 432.333,-560.5 436.167,-560.5 436.167,-560.5 665.833,-560.5 665.833,-560.5 669.667,-560.5 673.5,-564.333 673.5,-568.167 673.5,-568.167 673.5,-575.833 673.5,-575.833 673.5,-579.667 669.667,-583.5 665.833,-583.5"/>
<text text-anchor="middle" x="551" y="-568.3" font-family="Arial" font-size="14.00" fill="#ff6c60">server/serverPluginModuleRewrite.ts</text>
</g>
<!-- server/serverPluginVue.ts&#45;&gt;server/serverPluginModuleRewrite.ts -->
<g id="edge36" class="edge"><title>server/serverPluginVue.ts&#45;&gt;server/serverPluginModuleRewrite.ts</title>
<path fill="none" stroke="#757575" d="M311.96,-408.384C334.298,-440.012 397.896,-527.818 428,-546 435.542,-550.556 443.769,-554.32 452.272,-557.429"/>
<polygon fill="#757575" stroke="#757575" points="451.374,-560.819 461.968,-560.669 453.592,-554.18 451.374,-560.819"/>
</g>
<!-- server/serverPluginServeStatic.ts -->
<g id="node18" class="node"><title>server/serverPluginServeStatic.ts</title>
<path fill="none" stroke="#cfffac" d="M2041.83,-120.5C2041.83,-120.5 1834.17,-120.5 1834.17,-120.5 1830.33,-120.5 1826.5,-116.667 1826.5,-112.833 1826.5,-112.833 1826.5,-105.167 1826.5,-105.167 1826.5,-101.333 1830.33,-97.5 1834.17,-97.5 1834.17,-97.5 2041.83,-97.5 2041.83,-97.5 2045.67,-97.5 2049.5,-101.333 2049.5,-105.167 2049.5,-105.167 2049.5,-112.833 2049.5,-112.833 2049.5,-116.667 2045.67,-120.5 2041.83,-120.5"/>
<text text-anchor="middle" x="1938" y="-105.3" font-family="Arial" font-size="14.00" fill="#cfffac">server/serverPluginServeStatic.ts</text>
</g>
<!-- server/serverPluginVue.ts&#45;&gt;server/serverPluginServeStatic.ts -->
<g id="edge37" class="edge"><title>server/serverPluginVue.ts&#45;&gt;server/serverPluginServeStatic.ts</title>
<path fill="none" stroke="#757575" d="M318.529,-385.579C338.18,-369.343 372.958,-337.685 392,-303 422.918,-246.682 379.026,-204.583 428,-163 569.326,-43.003 1073.6,-89 1259,-89 1259,-89 1259,-89 1441,-89 1569.1,-89 1715.67,-95.743 1816.06,-101.398"/>
<polygon fill="#757575" stroke="#757575" points="1816.06,-104.904 1826.24,-101.977 1816.46,-97.9149 1816.06,-104.904"/>
</g>
<!-- server/serverPluginVue.ts&#45;&gt;server/serverPluginSourceMap.ts -->
<g id="edge38" class="edge"><title>server/serverPluginVue.ts&#45;&gt;server/serverPluginSourceMap.ts</title>
<path fill="none" stroke="#757575" d="M331.523,-385.749C356.295,-376.199 393.934,-363.103 428,-357 752.74,-298.825 840.823,-314.023 1170,-336 1325.12,-346.356 1505.16,-374.345 1603.51,-391.01"/>
<polygon fill="#757575" stroke="#757575" points="1603.2,-394.507 1613.64,-392.735 1604.37,-387.606 1603.2,-394.507"/>
</g>
<!-- server/serverPluginVue.ts&#45;&gt;utils/resolveVue.ts -->
<g id="edge40" class="edge"><title>server/serverPluginVue.ts&#45;&gt;utils/resolveVue.ts</title>
<path fill="none" stroke="#757575" d="M316.963,-385.567C335.385,-368.825 369.406,-336.026 392,-303 412.877,-272.483 397.718,-249.215 428,-228 578.432,-122.609 1157.59,-160.026 1364.77,-177.276"/>
<polygon fill="#757575" stroke="#757575" points="1364.68,-180.781 1374.94,-178.132 1365.27,-173.806 1364.68,-180.781"/>
</g>
<!-- server/serverPluginEnv.ts -->
<g id="node14" class="node"><title>server/serverPluginEnv.ts</title>
<path fill="none" stroke="#cfffac" d="M878.333,-621.5C878.333,-621.5 717.667,-621.5 717.667,-621.5 713.833,-621.5 710,-617.667 710,-613.833 710,-613.833 710,-606.167 710,-606.167 710,-602.333 713.833,-598.5 717.667,-598.5 717.667,-598.5 878.333,-598.5 878.333,-598.5 882.167,-598.5 886,-602.333 886,-606.167 886,-606.167 886,-613.833 886,-613.833 886,-617.667 882.167,-621.5 878.333,-621.5"/>
<text text-anchor="middle" x="798" y="-606.3" font-family="Arial" font-size="14.00" fill="#cfffac">server/serverPluginEnv.ts</text>
</g>
<!-- server/serverPluginHmr.ts&#45;&gt;../hmrPayload.ts -->
<g id="edge18" class="edge"><title>server/serverPluginHmr.ts&#45;&gt;../hmrPayload.ts</title>
<path fill="none" stroke="#757575" d="M91.6841,-437.459C98.4744,-479.492 127.748,-626.669 214,-702 219.99,-707.232 226.99,-711.411 234.379,-714.751"/>
<polygon fill="#757575" stroke="#757575" points="233.314,-718.094 243.899,-718.547 235.907,-711.592 233.314,-718.094"/>
</g>
<!-- server/serverPluginHmr.ts&#45;&gt;resolver.ts -->
<g id="edge19" class="edge"><title>server/serverPluginHmr.ts&#45;&gt;resolver.ts</title>
<path fill="none" stroke="#757575" d="M178.246,-428.404C246.446,-430.248 343.204,-432.837 428,-435 542.097,-437.91 676.043,-441.127 746.992,-442.816"/>
<polygon fill="#757575" stroke="#757575" points="747.329,-446.325 757.409,-443.063 747.495,-439.327 747.329,-446.325"/>
</g>
<!-- server/serverPluginHmr.ts&#45;&gt;utils/cssUtils.ts -->
<g id="edge24" class="edge"><title>server/serverPluginHmr.ts&#45;&gt;utils/cssUtils.ts</title>
<path fill="none" stroke="#757575" d="M104.057,-414.664C148.403,-379.618 290.569,-272.696 428,-228 741.865,-125.922 846.648,-131.858 1170,-198 1190.78,-202.25 1212.7,-211.547 1229.59,-219.882"/>
<polygon fill="#757575" stroke="#757575" points="1228.41,-223.207 1238.91,-224.632 1231.59,-216.971 1228.41,-223.207"/>
</g>
<!-- server/serverPluginHmr.ts&#45;&gt;server/serverPluginClient.ts -->
<g id="edge20" class="edge"><title>server/serverPluginHmr.ts&#45;&gt;server/serverPluginClient.ts</title>
<path fill="none" stroke="#757575" d="M100.835,-437.547C121.113,-458.509 167.01,-502.968 214,-528 452.124,-654.853 777.991,-673.697 941.914,-674.297"/>
<polygon fill="#757575" stroke="#757575" points="941.99,-677.797 951.996,-674.312 942.001,-670.797 941.99,-677.797"/>
</g>
<!-- server/serverPluginHmr.ts&#45;&gt;server/serverPluginVue.ts -->
<g id="edge22" class="edge"><title>server/serverPluginHmr.ts&#45;&gt;server/serverPluginVue.ts</title>
<path fill="none" stroke="#757575" d="M132.138,-414.721C152.925,-410.953 178.937,-406.99 204.31,-403.632"/>
<polygon fill="#757575" stroke="#757575" points="204.899,-407.085 214.366,-402.329 203.999,-400.143 204.899,-407.085"/>
</g>
<!-- server/serverPluginHmr.ts&#45;&gt;server/serverPluginModuleRewrite.ts -->
<g id="edge21" class="edge"><title>server/serverPluginHmr.ts&#45;&gt;server/serverPluginModuleRewrite.ts</title>
<path fill="none" stroke="#757575" d="M132.634,-437.331C196.174,-459.306 319.845,-506.419 428,-537 456.81,-545.146 490.083,-552.077 514.597,-558.146"/>
<polygon fill="#757575" stroke="#757575" points="513.972,-561.599 524.528,-560.696 515.712,-554.819 513.972,-561.599"/>
</g>
<!-- utils/babelParse.ts -->
<g id="node17" class="node"><title>utils/babelParse.ts</title>
<path fill="none" stroke="#cfffac" d="M360.833,-22.5C360.833,-22.5 245.167,-22.5 245.167,-22.5 241.333,-22.5 237.5,-18.6667 237.5,-14.8333 237.5,-14.8333 237.5,-7.16667 237.5,-7.16667 237.5,-3.33333 241.333,0.5 245.167,0.5 245.167,0.5 360.833,0.5 360.833,0.5 364.667,0.5 368.5,-3.33333 368.5,-7.16667 368.5,-7.16667 368.5,-14.8333 368.5,-14.8333 368.5,-18.6667 364.667,-22.5 360.833,-22.5"/>
<text text-anchor="middle" x="303" y="-7.3" font-family="Arial" font-size="14.00" fill="#cfffac">utils/babelParse.ts</text>
</g>
<!-- server/serverPluginHmr.ts&#45;&gt;utils/babelParse.ts -->
<g id="edge23" class="edge"><title>server/serverPluginHmr.ts&#45;&gt;utils/babelParse.ts</title>
<path fill="none" stroke="#757575" d="M90.0096,-414.492C90.697,-362.596 100.538,-148.071 214,-37 218.23,-32.8593 223.086,-29.3728 228.297,-26.438"/>
<polygon fill="#757575" stroke="#757575" points="229.913,-29.5436 237.354,-22.0014 226.834,-23.2573 229.913,-29.5436"/>
</g>
<!-- server/serverPluginModuleRewrite.ts&#45;&gt;resolver.ts -->
<g id="edge26" class="edge"><title>server/serverPluginModuleRewrite.ts&#45;&gt;resolver.ts</title>
<path fill="none" stroke="#757575" d="M573.742,-560.641C617.42,-537.821 715.931,-486.354 766.213,-460.084"/>
<polygon fill="#757575" stroke="#757575" points="768.064,-463.066 775.307,-455.334 764.823,-456.862 768.064,-463.066"/>
</g>
<!-- server/serverPluginModuleRewrite.ts&#45;&gt;utils/cssUtils.ts -->
<g id="edge30" class="edge"><title>server/serverPluginModuleRewrite.ts&#45;&gt;utils/cssUtils.ts</title>
<path fill="none" stroke="#757575" d="M561.581,-560.417C584.623,-533.184 645.993,-464.276 710,-423 868.42,-320.841 1088.74,-268.093 1195.7,-247.121"/>
<polygon fill="#757575" stroke="#757575" points="1196.54,-250.524 1205.69,-245.19 1195.21,-243.651 1196.54,-250.524"/>
</g>
<!-- server/serverPluginModuleRewrite.ts&#45;&gt;server/serverPluginClient.ts -->
<g id="edge27" class="edge"><title>server/serverPluginModuleRewrite.ts&#45;&gt;server/serverPluginClient.ts</title>
<path fill="none" stroke="#757575" d="M577.17,-583.269C607.893,-596.546 661.729,-618.276 710,-630 786.526,-648.587 874.998,-659.233 941.799,-665.153"/>
<polygon fill="#757575" stroke="#757575" points="941.646,-668.653 951.91,-666.028 942.249,-661.679 941.646,-668.653"/>
</g>
<!-- server/serverPluginModuleRewrite.ts&#45;&gt;server/serverPluginEnv.ts -->
<g id="edge28" class="edge"><title>server/serverPluginModuleRewrite.ts&#45;&gt;server/serverPluginEnv.ts</title>
<path fill="none" stroke="#757575" d="M624.845,-583.298C652.982,-587.663 685.327,-592.679 714.329,-597.178"/>
<polygon fill="#757575" stroke="#757575" points="714.018,-600.671 724.436,-598.745 715.091,-593.754 714.018,-600.671"/>
</g>
<!-- server/serverPluginModuleRewrite.ts&#45;&gt;server/serverPluginHmr.ts -->
<g id="edge29" class="edge"><title>server/serverPluginModuleRewrite.ts&#45;&gt;server/serverPluginHmr.ts</title>
<path fill="none" stroke="#757575" d="M449.541,-560.672C442.224,-558.876 434.981,-556.974 428,-555 309.899,-521.607 173.298,-468.501 116.69,-441.724"/>
<polygon fill="#757575" stroke="#757575" points="118.212,-438.572 107.688,-437.35 115.153,-444.868 118.212,-438.572"/>
</g>
<!-- utils/resolveVue.ts&#45;&gt;utils/pathUtils.ts -->
<g id="edge50" class="edge"><title>utils/resolveVue.ts&#45;&gt;utils/pathUtils.ts</title>
<path fill="none" stroke="#757575" d="M1496.33,-195.254C1530.83,-202.27 1575.39,-211.333 1611.62,-218.703"/>
<polygon fill="#757575" stroke="#757575" points="1611.11,-222.17 1621.61,-220.734 1612.51,-215.311 1611.11,-222.17"/>
</g>
<!-- utils/fsUtils.ts -->
<g id="node23" class="node"><title>utils/fsUtils.ts</title>
<path fill="none" stroke="#ff6c60" d="M1719.33,-140.5C1719.33,-140.5 1636.67,-140.5 1636.67,-140.5 1632.83,-140.5 1629,-136.667 1629,-132.833 1629,-132.833 1629,-125.167 1629,-125.167 1629,-121.333 1632.83,-117.5 1636.67,-117.5 1636.67,-117.5 1719.33,-117.5 1719.33,-117.5 1723.17,-117.5 1727,-121.333 1727,-125.167 1727,-125.167 1727,-132.833 1727,-132.833 1727,-136.667 1723.17,-140.5 1719.33,-140.5"/>
<text text-anchor="middle" x="1678" y="-125.3" font-family="Arial" font-size="14.00" fill="#ff6c60">utils/fsUtils.ts</text>
</g>
<!-- utils/resolveVue.ts&#45;&gt;utils/fsUtils.ts -->
<g id="edge49" class="edge"><title>utils/resolveVue.ts&#45;&gt;utils/fsUtils.ts</title>
<path fill="none" stroke="#757575" d="M1489.33,-172.737C1526.87,-163.988 1579.08,-151.821 1618.9,-142.541"/>
<polygon fill="#757575" stroke="#757575" points="1619.79,-145.926 1628.74,-140.248 1618.2,-139.109 1619.79,-145.926"/>
</g>
<!-- utils/pathUtils.ts&#45;&gt;resolver.ts -->
<g id="edge48" class="edge"><title>utils/pathUtils.ts&#45;&gt;resolver.ts</title>
<path fill="none" stroke="#757575" d="M1652.72,-243.276C1623.93,-256.33 1574.24,-277.845 1530,-292 1279.88,-372.036 967.823,-420.59 848.51,-437.364"/>
<polygon fill="#757575" stroke="#757575" points="847.995,-433.902 838.575,-438.75 848.962,-440.835 847.995,-433.902"/>
</g>
<!-- utils/fsUtils.ts&#45;&gt;server/serverPluginHmr.ts -->
<g id="edge46" class="edge"><title>utils/fsUtils.ts&#45;&gt;server/serverPluginHmr.ts</title>
<path fill="none" stroke="#757575" d="M1628.64,-118.883C1523.4,-97.7779 1265.49,-51 1047,-51 550,-51 550,-51 550,-51 379.097,-51 339.305,-121.783 214,-238 159.496,-288.551 117.555,-367.71 99.5796,-405.103"/>
<polygon fill="#757575" stroke="#757575" points="96.2556,-403.946 95.1545,-414.483 102.586,-406.932 96.2556,-403.946"/>
</g>
<!-- utils/fsUtils.ts&#45;&gt;server/serverPluginServeStatic.ts -->
<g id="edge47" class="edge"><title>utils/fsUtils.ts&#45;&gt;server/serverPluginServeStatic.ts</title>
<path fill="none" stroke="#757575" d="M1727.23,-125.262C1752.49,-123.303 1784.68,-120.808 1816.21,-118.364"/>
<polygon fill="#757575" stroke="#757575" points="1816.72,-121.835 1826.42,-117.572 1816.17,-114.856 1816.72,-121.835"/>
</g>
</g>
</svg>
